# xmcd
#
# Track frame offsets:
#   150
#   26341
#   53327
#   75161
#   98406
#   123633
#   146216
#   173408
#   195052
#   213630
#   230737
#   252343
#   273612
#   294183
#
# Disc length: 4228 seconds
#
# Revision: 0
# Processed by: cddbd v1.5.2PL0 Copyright (c) Steve Scherf et al.
# Submitted via: GXTranscoder 2.0.1939
#
DISCID=b310820e
DTITLE=a - b
DYEAR=1900
DGENRE=Blues
TTITLE0=a
TTITLE1=b
TTITLE2=e
TTITLE3=d
TTITLE4=e
TTITLE5=f
TTITLE6=g
TTITLE7=h
TTITLE8=i
TTITLE9=j
TTITLE10=k
TTITLE11=l
TTITLE12=n
TTITLE13=o
EXTD=
EXTT0=
EXTT1=
EXTT2=
EXTT3=
EXTT4=
EXTT5=
EXTT6=
EXTT7=
EXTT8=
EXTT9=
EXTT10=
EXTT11=
EXTT12=
EXTT13=
PLAYORDER=
